# xmcd
#
# Track frame offsets:
#  150
#  22534
#  42482
#  62885
#  80470
#
# Disc length: 1495 seconds
#
# Revision: 0
# Processed by: cddbd v1.5.1PL2 Copyright (c) Steve Scherf et al.
# Submitted via: Collectorz.com_Music_Collector 6.10
#
DISCID=3305d505
DTITLE=A Crossroads Deal - For Fans Only
DYEAR=1900
DGENRE=Blues
TTITLE0=High Heeled Sneakers
TTITLE1=Goin' To New York
TTITLE2=Shake A Hand
TTITLE3=Same Old Blues
TTITLE4=Crossroads
EXTD=
EXTT0=
EXTT1=
EXTT2=
EXTT3=
EXTT4=
PLAYORDER=
